#!OML:ASF F:\VICON\USERDATA\INSTALL\Justin_Nancy\Justin_Nancy.ASF
:FULLY-SPECIFIED
:DEGREES
142
root 0.961959 17.5693 -6.52531 -5.00075 5.07826 -0.767798
lowerback 7.33546 -2.17494 -2.49531
upperback 1.34808 -2.99238 3.31158
thorax -2.40703 -1.4705 5.11394
lowerneck -16.2777 -2.48374 -9.70887
upperneck 19.8348 -1.56798 2.93726
head 9.03231 -1.15371 2.41465
rclavicle -1.25483e-014 2.06736e-014
rhumerus -40.5778 -22.0131 -71.0769
rradius 24.6196
rwrist 11.1108
rhand -21.5858 15.4064
rfingers 7.12502
rthumb 4.8087 -14.5191
lclavicle -1.25483e-014 2.06736e-014
lhumerus -26.2785 7.06028 85.7092
lradius 30.7112
lwrist -7.19495
lhand -15.109 30.801
lfingers 7.12502
lthumb 11.0596 60.4896
rfemur -13.6233 2.12984 24.1882
rtibia 20.9611
rfoot 1.60755 -5.27745
rtoes 1.30497
lfemur -4.19203 0.513007 -16.9758
ltibia 58.7096
lfoot 17.8087 -14.7275
ltoes -5.47097
143
root 0.941644 17.5948 -6.38201 -5.14924 5.23077 -1.18946
lowerback 7.39501 -2.17205 -2.1981
upperback 1.3921 -2.96227 3.44706
thorax -2.40581 -1.45791 5.08657
lowerneck -16.2969 -2.57548 -9.60836
upperneck 19.9038 -1.68533 2.78788
head 9.0662 -1.2188 2.33209
rclavicle -5.1684e-015 8.74653e-015
rhumerus -40.3345 -21.7702 -71.2276
rradius 24.9516
rwrist 10.8641
rhand -21.1356 15.1076
rfingers 7.12502
rthumb 5.24342 -14.8076
lclavicle -5.1684e-015 8.74653e-015
lhumerus -26.2905 6.95093 85.8215
lradius 30.2496
lwrist -7.74913
lhand -14.6386 30.3926
lfingers 7.12502
lthumb 11.5133 60.0564
rfemur -12.6308 2.35501 24.7925
rtibia 20.3155
rfoot 1.34637 -5.76869
rtoes 1.33811
lfemur -5.51818 0.870281 -16.1948
ltibia 60.7743
lfoot 19.4809 -14.9536
ltoes -2.7953
144
root 0.922072 17.6096 -6.24445 -5.24453 5.21121 -1.55526
lowerback 7.50994 -2.08855 -1.90419
upperback 1.38522 -2.82466 3.54946
thorax -2.50035 -1.38857 5.02168
lowerneck -16.5073 -2.67327 -9.55314
upperneck 20.208 -1.80594 2.76063
head 9.21758 -1.28005 2.30004
rclavicle -3.62782e-015 -2.38542e-014
rhumerus -40.0575 -21.473 -71.4622
rradius 25.322
rwrist 10.8197
rhand -20.7999 15.0087
rfingers 7.12502
rthumb 5.56755 -14.8981
lclavicle -3.62782e-015 -2.38542e-014
lhumerus -26.2864 6.98425 85.9082
lradius 29.7042
lwrist -8.3017
lhand -13.6789 30.5352
lfingers 7.12502
lthumb 12.4387 60.145
rfemur -11.7592 2.73918 25.3761
rtibia 19.6792
rfoot 1.26299 -6.27331
rtoes 1.45331
lfemur -6.86565 1.40184 -15.4727
ltibia 62.7158
lfoot 20.4166 -14.9375
ltoes -2.17408
145
root 0.902228 17.6252 -6.10803 -5.37006 5.11944 -1.86274
lowerback 7.58118 -2.00409 -1.62939
upperback 1.4203 -2.68924 3.58843
thorax -2.52817 -1.32251 4.89711
lowerneck -16.5762 -2.72553 -9.62883
upperneck 20.3388 -1.90049 2.97478
head 9.28408 -1.30899 2.37576
rclavicle -2.41026e-015 2.22639e-014
rhumerus -39.5877 -21.0304 -71.8648
rradius 25.4436
rwrist 10.6816
rhand -20.5581 16.5373
rfingers 7.12502
rthumb 5.80099 -13.3633
lclavicle -2.41026e-015 2.22639e-014
lhumerus -26.2893 6.88887 85.9157
lradius 29.1532
lwrist -8.493
lhand -12.9431 31.2314
lfingers 7.12502
lthumb 13.148 60.7969
rfemur -10.8779 3.13288 25.9139
rtibia 19.1777
rfoot 1.0333 -6.81163
rtoes 2.323
lfemur -8.1648 1.94828 -14.8647
ltibia 64.5029
lfoot 21.0008 -14.4684
ltoes 0.490341
146
root 0.887966 17.6467 -5.967 -5.52308 5.27776 -1.98911
lowerback 7.65825 -1.97038 -1.48659
upperback 1.43236 -2.63342 3.55401
thorax -2.57215 -1.29477 4.77833
lowerneck -16.3534 -2.74745 -9.60025
upperneck 20.261 -1.98715 3.07937
head 9.2219 -1.33517 2.39657
rclavicle 1.49834e-014 -7.15625e-015
rhumerus -39.2286 -20.5585 -72.2501
rradius 25.5466
rwrist 10.2
rhand -20.4106 18.1966
rfingers 7.12502
rthumb 5.94344 -11.7
lclavicle 1.49834e-014 -7.15625e-015
lhumerus -26.402 6.91559 85.8614
lradius 28.4788
lwrist -9.403
lhand -12.9703 30.1875
lfingers 7.12502
lthumb 13.1218 59.7547
rfemur -9.96185 3.28999 26.2177
rtibia 18.8213
rfoot 0.775585 -7.34856
rtoes 1.80288
lfemur -9.39072 2.12464 -14.6111
ltibia 66.0898
lfoot 20.7292 -13.6687
ltoes 1.43541
147
root 0.883856 17.6628 -5.84064 -5.52038 5.0395 -1.93855
lowerback 7.71531 -1.83722 -1.45359
upperback 1.37116 -2.45264 3.52237
thorax -2.68691 -1.20165 4.71448
lowerneck -16.1458 -2.78257 -9.6563
upperneck 20.2743 -2.05743 3.13723
head 9.19466 -1.36764 2.41797
rclavicle 7.06928e-015 1.19271e-014
rhumerus -38.7163 -20.4538 -72.3323
rradius 25.258
rwrist 10.146
rhand -20.3174 18.9698
rfingers 7.12502
rthumb 6.03335 -10.9243
lclavicle 7.06928e-015 1.19271e-014
lhumerus -26.6456 7.38009 85.8241
lradius 28.0539
lwrist -10.4863
lhand -13.5319 29.7148
lfingers 7.12502
lthumb 12.5805 59.316
rfemur -9.26898 3.37259 26.3101
rtibia 18.4011
rfoot 0.65144 -7.33698
rtoes 1.93475
lfemur -10.6732 2.57788 -14.6665
ltibia 67.5384
lfoot 19.8314 -12.4392
ltoes 0.753081
148
root 0.887143 17.6774 -5.72718 -5.38194 4.17097 -1.76663
lowerback 7.72786 -1.49468 -1.35904
upperback 1.33804 -1.99192 3.38326
thorax -2.77853 -0.970543 4.4732
lowerneck -16.1852 -2.86906 -9.67583
upperneck 20.3951 -2.2086 3.30822
head 9.25577 -1.42339 2.46224
rclavicle 8.82107e-016 2.22639e-014
rhumerus -38.1567 -20.6427 -72.3999
rradius 24.919
rwrist 10.4645
rhand -20.1344 19.5489
rfingers 7.12502
rthumb 6.21002 -10.3401
lclavicle 8.82107e-016 2.22639e-014
lhumerus -26.8318 7.72497 85.751
lradius 27.8115
lwrist -10.4293
lhand -14.5147 29.5859
lfingers 7.12502
lthumb 11.6328 59.243
rfemur -9.0264 3.68531 26.2777
rtibia 18.2242
rfoot 0.569863 -6.85383
rtoes 1.56989
lfemur -11.9533 3.5601 -14.8806
ltibia 68.7968
lfoot 19.0407 -10.7764
ltoes 3.50748
149
root 0.88214 17.6877 -5.60559 -5.45964 3.72136 -1.81528
lowerback 7.82259 -1.29233 -1.1619
upperback 1.45935 -1.70993 3.31541
thorax -2.73801 -0.833729 4.26367
lowerneck -16.4964 -2.92933 -9.65312
upperneck 20.562 -2.28646 3.39935
head 9.37689 -1.44901 2.48028
rclavicle 1.67228e-014 -4.69132e-014
rhumerus -37.5532 -20.4803 -72.7886
rradius 25.1671
rwrist 10.4803
rhand -20.0448 18.6362
rfingers 7.12502
rthumb 6.29659 -11.2502
lclavicle 1.67228e-014 -4.69132e-014
lhumerus -26.9211 7.37328 86.0218
lradius 26.6875
lwrist -6.31711
lhand -20.1039 21.2146
lfingers 7.12502
lthumb 6.23948 51.1027
rfemur -8.7264 3.84701 26.5021
rtibia 18.1031
rfoot 0.69263 -6.64872
rtoes -0.155992
lfemur -12.9921 4.19474 -14.7985
ltibia 69.9058
lfoot 9.74944 -9.44781
ltoes -25.3913
150
root 0.871913 17.703 -5.4779 -5.57951 3.68568 -1.84427
lowerback 7.90116 -1.24169 -1.13728
upperback 1.49865 -1.64101 3.30419
thorax -2.74771 -0.799839 4.23303
lowerneck -16.453 -2.96678 -9.80438
upperneck 20.6749 -2.32885 3.50728
head 9.41505 -1.47141 2.53879
rclavicle 1.54804e-014 -4.45278e-014
rhumerus -36.996 -19.7426 -73.3031
rradius 25.62
rwrist 10.1452
rhand -19.8441 16.6304
rfingers 7.12502
rthumb 6.49035 -13.2502
lclavicle 1.54804e-014 -4.45278e-014
lhumerus -27.2325 8.63694 85.5497
lradius 26.9545
lwrist -9.89443
lhand -16.7966 25.7248
lfingers 7.12502
lthumb 9.43163 55.4937
rfemur -7.91896 3.95817 26.6575
rtibia 18.066
rfoot 0.0370149 -6.9356
rtoes 1.55928
lfemur -13.947 4.43866 -14.7748
ltibia 70.7955
lfoot 12.7208 -8.77206
ltoes -10.8545
151
root 0.866924 17.7105 -5.35861 -5.57895 3.45453 -2.01482
lowerback 7.88711 -1.1749 -0.943852
upperback 1.47232 -1.53383 3.35493
thorax -2.77966 -0.746955 4.166
lowerneck -16.1774 -2.93489 -9.99319
upperneck 20.6463 -2.3056 3.68089
head 9.35699 -1.45781 2.63485
rclavicle -2.00027e-015 -1.82882e-014
rhumerus -36.4962 -19.3024 -73.5522
rradius 25.8327
rwrist 10.5124
rhand -19.6156 15.633
rfingers 7.12502
rthumb 6.71094 -14.2407
lclavicle -2.00027e-015 -1.82882e-014
lhumerus -27.4946 8.82206 85.6624
lradius 26.3249
lwrist -8.14667
lhand -19.7598 22.7842
lfingers 7.12502
lthumb 6.57167 52.6622
rfemur -7.43807 4.28583 26.9762
rtibia 18.0806
rfoot -0.294268 -7.10441
rtoes 0.887106
lfemur -15.0363 4.74729 -14.6289
ltibia 71.5443
lfoot 12.8271 -8.00041
ltoes -6.22713
152
root 0.859599 17.7144 -5.2477 -5.57378 3.15181 -2.1495
lowerback 7.96938 -1.03449 -0.766784
upperback 1.46918 -1.3307 3.36277
thorax -2.84864 -0.645983 4.05615
lowerneck -16.0147 -2.96366 -10.0029
upperneck 20.6203 -2.37136 3.72447
head 9.32334 -1.48515 2.64366
rclavicle 1.0051e-014 -5.00937e-014
rhumerus -35.9254 -19.1685 -73.7101
rradius 25.8529
rwrist 10.8776
rhand -19.5963 15.1006
rfingers 7.12502
rthumb 6.72953 -14.7725
lclavicle 1.0051e-014 -5.00937e-014
lhumerus -27.5123 10.065 85.2474
lradius 26.5939
lwrist -11.9968
lhand -14.8486 28.5461
lfingers 7.12502
lthumb 11.3108 58.2212
rfemur -7.19531 4.58788 27.2904
rtibia 18.3468
rfoot -0.579236 -7.24518
rtoes 0.314082
lfemur -16.1152 5.08023 -14.5039
ltibia 72.0853
lfoot 11.025 -7.38277
ltoes -5.95027
153
root 0.856143 17.7219 -5.13185 -5.56925 2.93268 -2.26126
lowerback 8.01746 -0.883338 -0.498783
upperback 1.49258 -1.10942 3.27169
thorax -2.87492 -0.537962 3.78737
lowerneck -16.0051 -3.04663 -9.85733
upperneck 20.7055 -2.53656 3.76485
head 9.36124 -1.54803 2.61333
rclavicle 5.87657e-015 6.36111e-015
rhumerus -35.1719 -19.1904 -73.9751
rradius 25.6693
rwrist 10.9331
rhand -19.6158 14.3021
rfingers 7.12502
rthumb 6.71069 -15.5716
lclavicle 5.87657e-015 6.36111e-015
lhumerus -27.6953 11.2525 84.6752
lradius 26.5458
lwrist -14.6118
lhand -12.4519 30.6004
lfingers 7.12502
lthumb 13.6215 60.1347
rfemur -6.97372 4.63233 27.5248
rtibia 18.4754
rfoot -0.812768 -7.17618
rtoes 0.532977
lfemur -17.1841 5.2242 -14.482
ltibia 72.4578
lfoot 8.3569 -6.79429
ltoes -9.67172
154
root 0.852734 17.7386 -5.01541 -5.40732 2.7511 -2.21078
lowerback 7.93195 -0.745632 -0.418067
upperback 1.47843 -0.923203 3.17213
thorax -2.85776 -0.446144 3.61689
lowerneck -16.1353 -3.13606 -9.7683
upperneck 20.825 -2.66028 3.71794
head 9.43442 -1.60499 2.56648
rclavicle 1.41634e-015 -4.77083e-015
rhumerus -34.4843 -18.7446 -74.435
rradius 26.0088
rwrist 10.1721
rhand -19.3237 12.6073
rfingers 7.12502
rthumb 6.99272 -17.2572
lclavicle 1.41634e-015 -4.77083e-015
lhumerus -28.1328 12.235 84.2167
lradius 26.5388
lwrist -15.3594
lhand -11.7345 28.5625
lfingers 7.12502
lthumb 14.3129 58.0492
rfemur -6.96353 4.86855 27.5396
rtibia 18.6116
rfoot -1.12494 -7.28142
rtoes 1.92857
lfemur -18.2717 5.2423 -14.6805
ltibia 72.5893
lfoot 5.58522 -6.29114
ltoes -15.0397
155
root 0.848193 17.7101 -4.90311 -5.31075 2.54156 -2.32465
lowerback 7.85351 -0.633521 -0.292949
upperback 1.45103 -0.763743 3.17729
thorax -2.85452 -0.367499 3.53406
lowerneck -16.1948 -3.18335 -9.7661
upperneck 20.9452 -2.71227 3.67995
head 9.49123 -1.63506 2.54677
rclavicle -2.23633e-016 -1.90833e-014
rhumerus -34.0471 -18.373 -74.6585
rradius 26.1122
rwrist 10.3916
rhand -19.5482 12.8563
rfingers 7.12502
rthumb 6.776 -17.0153
lclavicle -2.23633e-016 -1.90833e-014
lhumerus -28.5281 12.551 84.1398
lradius 26.6279
lwrist -14.3929
lhand -12.3758 29.8088
lfingers 7.12502
lthumb 13.6948 59.3382
rfemur -6.4021 4.912 27.8167
rtibia 18.8468
rfoot -2.0873 -7.45041
rtoes 1.53725
lfemur -19.4179 5.32476 -14.6299
ltibia 72.7969
lfoot 4.17934 -6.18732
ltoes -15.456
